<svg width="300" height="300" viewBox="0 0 300 300" version="1.1" xmlns="http://www.w3.org/2000/svg" xmlns:xlink="http://www.w3.org/1999/xlink">
<title>Group</title>
<desc>Created using Figma</desc>
<g id="Canvas" transform="translate(2812 -434)">
<g id="Group">
<g id="Ellipse 7">
<use xlink:href="#path0_fill" transform="translate(-2812 434)" fill="#CBA2A2"/>
</g>
<g id="Group">
<g id="Vector">
<use xlink:href="#path1_fill" transform="translate(-2762 534)" fill="#FFFFFF"/>
<use xlink:href="#path2_fill" transform="translate(-2762 534)" fill="#FFFFFF"/>
<use xlink:href="#path3_fill" transform="translate(-2762 534)" fill="#FFFFFF"/>
</g>
<g id="bc">
<use xlink:href="#path4_fill" transform="translate(-2721 542)" fill="#CBA2A2"/>
<use xlink:href="#path5_fill" transform="translate(-2721 542)" fill="#CBA2A2"/>
</g>
</g>
</g>
</g>
<defs>
<path id="path0_fill" d="M 300 150C 300 232.843 232.843 300 150 300C 67.1573 300 0 232.843 0 150C 0 67.1573 67.1573 0 150 0C 232.843 0 300 67.1573 300 150Z"/>
<path id="path1_fill" d="M 50 0L 50 100L 0 100L 50 0Z"/>
<path id="path2_fill" fill-rule="evenodd" d="M 200 0L 150 0L 150 100L 200 0Z"/>
<path id="path3_fill" d="M 50 0L 150 0L 150 100L 50 100L 50 0Z"/>
<path id="path4_fill" d="M 54.578 59.9818C 54.578 69.8299 52.3138 77.752 47.7855 83.7482C 43.2572 89.7047 37.1797 92.6829 29.5531 92.6829C 21.4101 92.6829 15.1142 89.804 10.6653 84.046L 10.1291 91.4916L 0 91.4916L 0 0L 11.0228 0L 11.0228 34.1307C 15.4717 28.611 21.6087 25.8512 29.434 25.8512C 37.2592 25.8512 43.3962 28.8095 47.8451 34.7263C 52.3337 40.6431 54.578 48.7439 54.578 59.0288L 54.578 59.9818ZM 43.5551 58.731C 43.5551 51.2258 42.1053 45.4281 39.2056 41.338C 36.3059 37.2479 32.1351 35.2028 26.6931 35.2028C 19.424 35.2028 14.2006 38.5782 11.0228 45.3289L 11.0228 73.2052C 14.3992 79.9559 19.6624 83.3312 26.8123 83.3312C 32.0953 83.3312 36.2066 81.2862 39.146 77.1961C 42.0854 73.1059 43.5551 66.9509 43.5551 58.731Z"/>
<path id="path5_fill" d="M 94.3793 83.6886C 98.3118 83.6886 101.748 82.4973 104.687 80.1147C 107.627 77.7321 109.255 74.7539 109.573 71.18L 120 71.18C 119.801 74.873 118.53 78.3874 116.187 81.723C 113.843 85.0586 110.705 87.7192 106.773 89.7047C 102.88 91.6902 98.7488 92.6829 94.3793 92.6829C 85.6008 92.6829 78.6097 89.7643 73.4062 83.9269C 68.2423 78.0498 65.6604 70.0284 65.6604 59.8627L 65.6604 58.0162C 65.6604 51.742 66.8123 46.1628 69.1162 41.2785C 71.4201 36.3941 74.717 32.6018 79.007 29.9016C 83.3366 27.2013 88.4409 25.8512 94.3198 25.8512C 101.549 25.8512 107.547 28.0153 112.314 32.3437C 117.12 36.6721 119.682 42.2911 120 49.2006L 109.573 49.2006C 109.255 45.031 107.666 41.616 104.806 38.9554C 101.986 36.2551 98.4906 34.905 94.3198 34.905C 88.719 34.905 84.3694 36.9302 81.2711 40.9806C 78.2125 44.9913 76.6832 50.8088 76.6832 58.4331L 76.6832 60.5179C 76.6832 67.9437 78.2125 73.6619 81.2711 77.6726C 84.3297 81.6833 88.6991 83.6886 94.3793 83.6886Z"/>
</defs>
</svg>
