<svg width="300" height="300" viewBox="0 0 300 300" version="1.1" xmlns="http://www.w3.org/2000/svg" xmlns:xlink="http://www.w3.org/1999/xlink">
<title>Group</title>
<desc>Created using Figma</desc>
<g id="Canvas" transform="translate(2324 -434)">
<g id="Group">
<g id="Ellipse 5">
<use xlink:href="#path0_fill" transform="translate(-2324 434)" fill="#CBA2A2"/>
</g>
<g id="iconmonstr-instagram-11">
<g id="Vector">
<use xlink:href="#path1_fill" transform="translate(-2274 484)" fill="#FFFFFF"/>
</g>
</g>
</g>
</g>
<defs>
<path id="path0_fill" d="M 300 150C 300 232.843 232.843 300 150 300C 67.1573 300 0 232.843 0 150C 0 67.1573 67.1573 0 150 0C 232.843 0 300 67.1573 300 150Z"/>
<path id="path1_fill" d="M 100 18.025C 126.7 18.025 129.867 18.125 140.417 18.6083C 167.517 19.8417 180.175 32.7 181.408 59.6C 181.892 70.1417 181.983 73.3083 181.983 100.008C 181.983 126.717 181.883 129.875 181.408 140.417C 180.167 167.292 167.542 180.175 140.417 181.408C 129.867 181.892 126.717 181.992 100 181.992C 73.3 181.992 70.1333 181.892 59.5917 181.408C 32.425 180.167 19.8333 167.25 18.6 140.408C 18.1167 129.867 18.0167 126.708 18.0167 100C 18.0167 73.3 18.125 70.1417 18.6 59.5917C 19.8417 32.7 32.4667 19.8333 59.5917 18.6C 70.1417 18.125 73.3 18.025 100 18.025L 100 18.025ZM 100 4.04769e-15C 72.8417 4.04769e-15 69.4417 0.116667 58.775 0.6C 22.4583 2.26667 2.275 22.4167 0.608333 58.7667C 0.116667 69.4417 0 72.8417 0 100C 0 127.158 0.116667 130.567 0.6 141.233C 2.26667 177.55 22.4167 197.733 58.7667 199.4C 69.4417 199.883 72.8417 200 100 200C 127.158 200 130.567 199.883 141.233 199.4C 177.517 197.733 197.75 177.583 199.392 141.233C 199.883 130.567 200 127.158 200 100C 200 72.8417 199.883 69.4417 199.4 58.775C 197.767 22.4917 177.592 2.275 141.242 0.608333C 130.567 0.116667 127.158 0 100 0L 100 4.04769e-15ZM 100 48.65C 71.6417 48.65 48.65 71.6417 48.65 100C 48.65 128.358 71.6417 151.358 100 151.358C 128.358 151.358 151.35 128.367 151.35 100C 151.35 71.6417 128.358 48.65 100 48.65ZM 100 133.333C 81.5917 133.333 66.6667 118.417 66.6667 100C 66.6667 81.5917 81.5917 66.6667 100 66.6667C 118.408 66.6667 133.333 81.5917 133.333 100C 133.333 118.417 118.408 133.333 100 133.333ZM 153.383 34.625C 146.75 34.625 141.375 40 141.375 46.625C 141.375 53.25 146.75 58.625 153.383 58.625C 160.008 58.625 165.375 53.25 165.375 46.625C 165.375 40 160.008 34.625 153.383 34.625Z"/>
</defs>
</svg>
