<svg width="300" height="300" viewBox="0 0 300 300" version="1.1" xmlns="http://www.w3.org/2000/svg" xmlns:xlink="http://www.w3.org/1999/xlink">
<title>Group</title>
<desc>Created using Figma</desc>
<g id="Canvas" transform="translate(2812 4)">
<g id="Group">
<g id="Ellipse 5">
<use xlink:href="#path0_fill" transform="translate(-2812 -4)" fill="#CBA2A2"/>
</g>
<g id="soundcloud icon">
<g id="Rectangle">
<use xlink:href="#path1_fill" transform="translate(-2762 154.212)" fill="#FFFFFF"/>
</g>
<g id="Rectangle 2">
<use xlink:href="#path2_fill" transform="translate(-2753.65 145.495)" fill="#FFFFFF"/>
</g>
<g id="Rectangle 3">
<use xlink:href="#path3_fill" transform="translate(-2744.93 143.679)" fill="#FFFFFF"/>
</g>
<g id="Rectangle 4">
<use xlink:href="#path4_fill" transform="translate(-2736.94 142.226)" fill="#FFFFFF"/>
</g>
<g id="Rectangle 5">
<use xlink:href="#path5_fill" transform="translate(-2728.22 136.415)" fill="#FFFFFF"/>
</g>
<g id="Rectangle 6">
<use xlink:href="#path6_fill" transform="translate(-2719.87 125.156)" fill="#FFFFFF"/>
</g>
<g id="Rectangle 7">
<use xlink:href="#path7_fill" transform="translate(-2710.79 119.708)" fill="#FFFFFF"/>
</g>
<g id="Rectangle 8">
<use xlink:href="#path8_fill" transform="translate(-2701.71 117.891)" fill="#FFFFFF"/>
</g>
<g id="Rectangle 9">
<use xlink:href="#path9_fill" transform="translate(-2691.9 119.708)" fill="#FFFFFF"/>
</g>
<g id="Rectangle 10">
<use xlink:href="#path10_fill" transform="translate(-2683.18 121.16)" fill="#FFFFFF"/>
</g>
<g id="Rectangle 11">
<use xlink:href="#path11_fill" transform="translate(-2674.1 112.806)" fill="#FFFFFF"/>
</g>
<g id="Rectangle 12">
<use xlink:href="#path12_fill" transform="translate(-2665.39 108.448)" fill="#FFFFFF"/>
</g>
<g id="Vector">
<use xlink:href="#path13_fill" transform="translate(-2655.94 103)" fill="#FFFFFF"/>
</g>
</g>
</g>
</g>
<defs>
<path id="path0_fill" d="M 300 150C 300 232.843 232.843 300 150 300C 67.1573 300 0 232.843 0 150C 0 67.1573 67.1573 0 150 0C 232.843 0 300 67.1573 300 150Z"/>
<path id="path1_fill" d="M 0 3.45046C 0 1.54483 1.54483 0 3.45046 0L 3.45046 0C 5.3561 0 6.90093 1.54483 6.90093 3.45046L 6.90093 20.5212C 6.90093 22.4268 5.3561 23.9716 3.45046 23.9716L 3.45046 23.9716C 1.54483 23.9716 0 22.4268 0 20.5212L 0 3.45046Z"/>
<path id="path2_fill" d="M 0 3.45046C 0 1.54483 1.54483 0 3.45046 0L 3.45046 0C 5.3561 0 6.90093 1.54483 6.90093 3.45046L 6.90093 37.5919C 6.90093 39.4975 5.3561 41.0424 3.45046 41.0424L 3.45046 41.0424C 1.54483 41.0424 0 39.4975 0 37.5919L 0 3.45046Z"/>
<path id="path3_fill" d="M 0 3.26886C 0 1.46352 1.46352 0 3.26886 0L 3.26886 0C 5.0742 0 6.53772 1.46352 6.53772 3.26886L 6.53772 41.7688C 6.53772 43.5741 5.0742 45.0376 3.26886 45.0376L 3.26886 45.0376C 1.46352 45.0376 0 43.5741 0 41.7688L 0 3.26886Z"/>
<path id="path4_fill" d="M 0 3.45046C 0 1.54483 1.54483 0 3.45046 0L 3.45046 0C 5.3561 0 6.90093 1.54483 6.90093 3.45046L 6.90093 43.04C 6.90093 44.9456 5.3561 46.4905 3.45046 46.4905L 3.45046 46.4905C 1.54483 46.4905 0 44.9456 0 43.04L 0 3.45046Z"/>
<path id="path5_fill" d="M 0 3.45046C 0 1.54483 1.54483 0 3.45046 0L 3.45046 0C 5.3561 0 6.90093 1.54483 6.90093 3.45046L 6.90093 48.8513C 6.90093 50.757 5.3561 52.3018 3.45046 52.3018L 3.45046 52.3018C 1.54483 52.3018 0 50.757 0 48.8513L 0 3.45046Z"/>
<path id="path6_fill" d="M 0 3.63207C 0 1.62613 1.62613 0 3.63207 0L 3.63207 0C 5.638 0 7.26414 1.62613 7.26414 3.63207L 7.26414 59.9291C 7.26414 61.9351 5.638 63.5612 3.63207 63.5612L 3.63207 63.5612C 1.62613 63.5612 0 61.9351 0 59.9291L 0 3.63207Z"/>
<path id="path7_fill" d="M 0 3.81367C 0 1.70744 1.70744 0 3.81367 0L 3.81367 0C 5.9199 0 7.62734 1.70744 7.62734 3.81367L 7.62734 65.1956C 7.62734 67.3019 5.9199 69.0093 3.81367 69.0093L 3.81367 69.0093C 1.70744 69.0093 0 67.3019 0 65.1956L 0 3.81367Z"/>
<path id="path8_fill" d="M 0 3.99527C 0 1.78875 1.78875 0 3.99527 0L 3.99527 0C 6.2018 0 7.99055 1.78875 7.99055 3.99527L 7.99055 66.8301C 7.99055 69.0366 6.2018 70.8253 3.99527 70.8253L 3.99527 70.8253C 1.78875 70.8253 0 69.0366 0 66.8301L 0 3.99527Z"/>
<path id="path9_fill" d="M 0 3.63207C 0 1.62613 1.62613 0 3.63207 0L 3.63207 0C 5.638 0 7.26414 1.62613 7.26414 3.63207L 7.26414 65.3772C 7.26414 67.3832 5.638 69.0093 3.63207 69.0093L 3.63207 69.0093C 1.62613 69.0093 0 67.3832 0 65.3772L 0 3.63207Z"/>
<path id="path10_fill" d="M 0 3.63207C 0 1.62613 1.62613 0 3.63207 0L 3.63207 0C 5.638 0 7.26414 1.62613 7.26414 3.63207L 7.26414 63.9244C 7.26414 65.9303 5.638 67.5565 3.63207 67.5565L 3.63207 67.5565C 1.62613 67.5565 0 65.9303 0 63.9244L 0 3.63207Z"/>
<path id="path11_fill" d="M 0 3.63207C 0 1.62613 1.62613 0 3.63207 0L 3.63207 0C 5.638 0 7.26414 1.62613 7.26414 3.63207L 7.26414 72.2781C 7.26414 74.2841 5.638 75.9102 3.63207 75.9102L 3.63207 75.9102C 1.62613 75.9102 0 74.2841 0 72.2781L 0 3.63207Z"/>
<path id="path12_fill" d="M 0 3.81367C 0 1.70744 1.70744 0 3.81367 0L 3.81367 0C 5.9199 0 7.62734 1.70744 7.62734 3.81367L 7.62734 76.455C 7.62734 78.5613 5.9199 80.2687 3.81367 80.2687L 3.81367 80.2687C 1.70744 80.2687 0 78.5613 0 76.455L 0 3.81367Z"/>
<path id="path13_fill" d="M 0 75.8278L 0 10.5466C 0 6.44098 2.49157 2.66023 6.45892 1.60367C 16.3818 -1.03894 22.7718 0.303045 24.431 0.638623C 24.4914 0.650833 24.549 0.661692 24.6096 0.672745C 45.1293 4.41556 53.6784 16.5027 57.3915 26.2327C 59.7862 32.508 66.9804 36.3379 73.5799 37.5873C 76.3525 38.1122 78.4688 38.9645 79.3011 39.2579C 79.4646 39.3156 79.6277 39.3661 79.7909 39.4244C 91.6674 43.6683 93.7059 56.8584 93.8764 59.3765C 93.8903 59.5823 93.8961 59.7843 93.9067 59.9902C 94.6853 75.2251 82.9755 83.0041 75.9234 85.4295C 75.0782 85.7202 74.186 85.8278 73.2922 85.8278L 10 85.8278C 4.47715 85.8278 0 81.3507 0 75.8278Z"/>
</defs>
</svg>
