<svg width="300" height="300" viewBox="0 0 300 300" version="1.1" xmlns="http://www.w3.org/2000/svg" xmlns:xlink="http://www.w3.org/1999/xlink">
<title>Group</title>
<desc>Created using Figma</desc>
<g id="Canvas" transform="translate(1923 35)">
<g id="Group">
<g id="Ellipse 6">
<use xlink:href="#path0_fill" transform="translate(-1923 -35)" fill="#CBA2A2"/>
</g>
<g id="spotify">
<g id="Ellipse 2">
<use xlink:href="#path1_fill" transform="translate(-1873 16)" fill="#FFFFFF"/>
</g>
<g id="Group">
<g id="Rectangle 13">
<use xlink:href="#path2_fill" transform="matrix(0.996195 0.0871557 -0.0871557 0.996195 -1843.35 60.2589)" fill="#CBA2A2"/>
</g>
<g id="Rectangle 13">
<use xlink:href="#path3_fill" transform="matrix(0.996195 0.0871557 -0.0871557 0.996195 -1832.3 102.17)" fill="#CBA2A2"/>
</g>
<g id="Rectangle 13">
<use xlink:href="#path4_fill" transform="matrix(0.996195 0.0871557 -0.0871557 0.996195 -1821.49 136.318)" fill="#CBA2A2"/>
</g>
</g>
</g>
</g>
</g>
<defs>
<path id="path0_fill" d="M 300 150C 300 232.843 232.843 300 150 300C 67.1573 300 0 232.843 0 150C 0 67.1573 67.1573 0 150 0C 232.843 0 300 67.1573 300 150Z"/>
<path id="path1_fill" d="M 200 100C 200 155.228 155.228 200 100 200C 44.7715 200 0 155.228 0 100C 0 44.7715 44.7715 0 100 0C 155.228 0 200 44.7715 200 100Z"/>
<path id="path2_fill" d="M 0 21.5586C 0 16.1971 3.56814 11.4644 8.74733 10.0781C 59.1185 -3.40469 90.8482 -3.31533 141.208 10.0822C 146.412 11.4664 150 16.2163 150 21.6004L 150 21.6004C 150 29.5804 142.372 35.3343 134.629 33.4045C 89.7012 22.2073 59.351 22.2155 15.3897 33.3292C 7.64883 35.2861 0 29.543 0 21.5586L 0 21.5586Z"/>
<path id="path3_fill" d="M 0 17.9655C 0 13.4976 2.97345 9.55369 7.28944 8.39844C 49.2654 -2.83724 75.7068 -2.76278 117.674 8.40181C 122.01 9.55531 125 13.5136 125 18.0003L 125 18.0003C 125 24.6503 118.643 29.4453 112.191 27.8371C 74.751 18.5061 49.4592 18.5129 12.8247 27.7743C 6.37403 29.4051 0 24.6191 0 17.9655L 0 17.9655Z"/>
<path id="path4_fill" d="M 0 14.3724C 0 10.7981 2.37876 7.64296 5.83155 6.71875C 39.4123 -2.26979 60.5654 -2.21022 94.139 6.72145C 97.6077 7.64425 100 10.8109 100 14.4003L 100 14.4003C 100 19.7203 94.9146 23.5562 89.7525 22.2697C 59.8008 14.8049 39.5674 14.8104 10.2598 22.2195C 5.09922 23.5241 0 19.6953 0 14.3724L 0 14.3724Z"/>
</defs>
</svg>
