<svg width="300" height="300" viewBox="0 0 300 300" version="1.1" xmlns="http://www.w3.org/2000/svg" xmlns:xlink="http://www.w3.org/1999/xlink">
<title>Group</title>
<desc>Created using Figma</desc>
<g id="Canvas" transform="translate(2014 -307)">
<g id="Group">
<g id="Ellipse 8">
<use xlink:href="#path0_fill" transform="translate(-2014 307)" fill="#CBA2A2"/>
</g>
<g id="Vector">
<use xlink:href="#path1_fill" transform="translate(-1964 376)" fill="#FFFFFF"/>
</g>
</g>
</g>
<defs>
<path id="path0_fill" d="M 300 150C 300 232.843 232.843 300 150 300C 67.1573 300 0 232.843 0 150C 0 67.1573 67.1573 0 150 0C 232.843 0 300 67.1573 300 150Z"/>
<path id="path1_fill" d="M 200 19.2417C 192.642 22.5083 184.733 24.7083 176.433 25.7C 184.908 20.625 191.417 12.5833 194.475 3C 186.55 7.7 177.767 11.1167 168.417 12.9583C 160.942 4.98333 150.267 -7.78834e-07 138.467 -7.78834e-07C 111.975 -7.78834e-07 92.5083 24.7167 98.4917 50.375C 64.4 48.6667 34.1667 32.3333 13.925 7.50833C 3.175 25.95 8.35 50.075 26.6167 62.2917C 19.9 62.075 13.5667 60.2333 8.04167 57.1583C 7.59167 76.1667 21.2167 93.95 40.95 97.9083C 35.175 99.475 28.85 99.8417 22.4167 98.6083C 27.6333 114.908 42.7833 126.767 60.75 127.1C 43.5 140.625 21.7667 146.667 0 144.1C 18.1583 155.742 39.7333 162.533 62.9 162.533C 139.083 162.533 182.125 98.1917 179.525 40.4833C 187.542 34.6917 194.5 27.4667 200 19.2417L 200 19.2417Z"/>
</defs>
</svg>
